<?xml version="1.0" encoding="UTF-8" standalone="no"?>
<!DOCTYPE svg PUBLIC "-//W3C//DTD SVG 1.1//EN" "http://www.w3.org/Graphics/SVG/1.1/DTD/svg11.dtd">
<svg width="100%" height="100%" viewBox="0 0 3000 3000" version="1.1" xmlns="http://www.w3.org/2000/svg" xmlns:xlink="http://www.w3.org/1999/xlink" xml:space="preserve" xmlns:serif="http://www.serif.com/" style="fill-rule:evenodd;clip-rule:evenodd;stroke-linejoin:round;stroke-miterlimit:2;">
    <rect id="Artboard1" x="0" y="0" width="3000" height="3000" style="fill:none;"/>
    <clipPath id="_clip1">
        <rect id="Artboard11" serif:id="Artboard1" x="0" y="0" width="3000" height="3000"/>
    </clipPath>
    <g clip-path="url(#_clip1)">
        <g transform="matrix(8.95075,0,0,8.95075,227.327,223.93)">
            <path d="M206.796,265.566C215.788,261.705 217.516,251.766 213.121,246.034C207.238,238.359 194.968,238.618 186.325,254.532C180.328,265.572 168.267,260.205 160.497,262.678C145.672,267.397 143.273,282.188 147.613,293.402C152.928,307.133 168.937,304.661 177.51,289.964C181.078,283.848 183.662,275.561 190.526,270.674C195.53,267.111 201.598,267.798 206.796,265.566Z" style="fill:white;fill-opacity:0.05;"/>
            <g transform="matrix(0.5,0,0,0.5,0,0)">
                <path d="M410.772,342.498C416.364,349.364 419.012,360.126 426.536,373.656C437.278,392.972 462.144,404.09 455.862,421.564C452.05,432.17 443.276,434.646 433.538,434.646C430.032,434.646 426.402,434.324 422.834,433.948C421.688,433.826 420.582,433.768 419.51,433.768C398.674,433.768 391.456,455.648 368.61,457.022C368.15,457.05 367.696,457.064 367.246,457.064C352.954,457.064 345.244,443.062 353.918,421.23C354.492,419.782 355.138,418.304 355.86,416.79C359.59,408.962 366.424,401.024 370.69,391.23C373.38,385.054 375.046,378.138 374.27,370.048C372.856,355.346 375.77,345.666 380.772,340.172C384.296,336.3 388.858,334.51 393.672,334.51C395.162,334.51 396.678,334.682 398.192,335.016C403.998,336.298 407.8,338.848 410.772,342.498Z" style="fill:white;fill-opacity:0.05;"/>
            </g>
            <path d="M135.035,212.598C129.571,209.334 126.211,221.247 116.454,222.287C108.842,223.098 102.753,214.926 93.129,218.092C86.808,220.172 77.186,229.45 86.47,241.958C88.689,244.949 92.297,245.809 95.541,246.656C106.293,249.464 104.349,261.791 111.844,267.847C129.464,282.083 154.79,224.398 135.035,212.598Z" style="fill:white;fill-opacity:0.05;"/>
            <path d="M236.908,3.019C233.328,-3.145 223.262,5.865 217.874,-9.009C214.097,-19.435 198.783,-28.974 196.411,1.038C195.016,18.698 189.495,13.361 178.767,18.476C169.589,22.851 169.185,34.85 184.093,37.156C190.014,38.072 195.114,38.055 200.126,41.813C223.951,59.677 229.435,48.103 227.112,32.89C226.473,28.705 224.974,23.679 227.612,19.875C229.997,16.435 233.9,14.192 236.375,10.826C237.998,8.62 238.297,5.411 236.908,3.019Z" style="fill:white;fill-opacity:0.05;"/>
            <path d="M40.12,116.085C29.047,113.854 26.036,106.283 14.032,107.453C10.892,107.758 8.495,109.418 7.276,112.335C5.55,116.464 4.622,128.732 17.232,127.329C31.109,125.784 36.144,130.854 49.747,127.714C53.584,126.828 56.373,124.321 56.318,120.335C56.233,114.218 47.442,117.561 40.12,116.085Z" style="fill:white;fill-opacity:0.05;"/>
            <path d="M65.235,273.953C63.756,279.446 63.406,286.861 62.477,291.689C57.818,315.908 52.315,298.29 28.414,295.238C22.204,294.445 14.236,297.924 10.087,292.467C2.661,282.698 12.555,275.794 6.039,253.775C0.807,236.091 7.716,227.515 18.621,230.494C21.335,231.236 24.665,233.61 26.597,235.164C36.08,242.789 41.065,246.616 59.813,250.191C76.539,253.381 68.351,262.386 65.235,273.953Z" style="fill:white;fill-opacity:0.05;"/>
            <path d="M283.002,139.069C285.828,130.318 279.863,122.952 273.09,122.518C264.021,121.937 256.62,130.781 262.538,146.735C266.644,157.804 255.39,163.021 252.337,170.049C246.513,183.458 255.496,194.299 266.116,198.16C279.119,202.887 287.266,190.03 282.165,174.877C280.042,168.571 275.775,161.619 276.559,153.742C277.132,147.998 281.369,144.127 283.002,139.069Z" style="fill:white;fill-opacity:0.05;"/>
            <g transform="matrix(0.5,0,0,0.5,0,0)">
                <path d="M277.768,195.23C276.656,186.162 279.654,175.374 284.878,165.23C291.636,152.11 302.124,140.066 312.27,134.214C315.068,132.602 317.718,131.784 320.318,131.784C321.96,131.784 323.582,132.11 325.206,132.766C331.528,135.318 336.88,143.22 335.668,150.17C334.824,155.01 331.38,159.346 328.234,162.942C327.556,163.718 326.86,164.48 326.154,165.23C322.722,168.884 319.05,172.306 315.826,176.156C311.366,181.484 308.144,186.81 308.474,193.988C308.494,194.398 308.504,194.812 308.508,195.23C308.55,200.65 307.182,206.546 302.268,209.584C300.234,210.842 297.866,211.406 295.428,211.404C288.744,211.404 281.538,207.166 279.272,201.348C278.524,199.426 278.03,197.378 277.768,195.23Z" style="fill:white;fill-opacity:0.05;"/>
            </g>
            <path d="M154.25,46.563C158.47,44.072 160.165,36.631 156.791,32.749C154.444,30.048 150.595,29.991 147.364,30.674C143.321,31.527 139.999,30.192 136.562,28.155C133.569,26.381 130.865,24.177 127.912,22.34C125.579,20.888 122.8,19.336 119.975,19.306C115.918,19.262 111.931,23.032 111.068,26.857C110.496,29.397 111.174,31.719 113.091,34.063C121.428,44.266 143.33,53.01 154.25,46.563Z" style="fill:white;fill-opacity:0.05;"/>
            <g transform="matrix(0.5,0,0,0.5,0,0)">
                <path d="M380.772,313.21C361.81,311.686 359.758,288.416 361.756,279.166C363.428,271.416 368.578,266.228 376.18,264.038C377.762,263.584 379.29,263.204 380.772,262.892C384.578,262.094 388.064,261.754 391.332,261.754C398.534,261.754 404.666,263.41 410.772,265.474C420.604,268.798 430.374,273.18 444.448,273.398C444.668,273.4 444.888,273.402 445.11,273.402C450.796,273.402 456.594,272.292 461.984,271.182C467.374,270.072 472.356,268.96 476.416,268.96C481.53,268.96 485.178,270.724 486.326,276.468C488.284,286.272 482.554,293.728 473.498,297.666C447.612,308.924 433.022,304.472 410.772,307.65C405.43,308.412 399.644,309.616 393.158,311.58C389.264,312.76 385.818,313.288 382.766,313.288C382.082,313.288 381.416,313.26 380.772,313.21Z" style="fill:white;fill-opacity:0.05;"/>
            </g>
            <path d="M71.103,31.752C64.716,24.559 66.272,20.32 58.182,15.028C51.828,10.872 34.792,5.531 35.181,-4.11C35.861,-20.976 57.388,-9.635 61.673,-9.206C69.409,-8.431 76.836,-12.063 84.66,-12.906C100.744,-14.641 107.586,1.218 101.261,18.53C93.105,40.85 77.835,39.334 71.103,31.752Z" style="fill:white;fill-opacity:0.05;"/>
            <g transform="matrix(0.5,0,0,0.5,0,0)">
                <path d="M154.77,250.036C141.972,248.504 131.814,235.442 140.282,217.348C144.088,209.214 149.962,203.898 154.77,198.534C159.424,193.342 163.082,188.104 162.91,180.218C162.874,178.554 162.678,176.912 162.358,175.288C161.068,168.72 157.76,162.466 154.824,156.47C146.002,138.458 152.392,118.166 165.894,115.788C167.518,115.502 169.086,115.366 170.6,115.366C183.718,115.366 192.844,125.592 201.254,136.976C215.104,155.726 230.252,149.546 243.03,157.174C246.874,159.468 249.628,162.232 251.448,165.23C257.914,175.878 252.586,189.458 242.358,195.23C239.68,196.742 236.664,197.718 233.436,197.966C231.242,198.134 228.954,198.19 226.636,198.19C224.302,198.19 221.938,198.134 219.606,198.078C217.276,198.02 214.978,197.964 212.778,197.964C206.186,197.964 200.472,198.474 197.378,201.024C190.448,206.736 187.184,213.374 184.77,219.97C181.444,229.06 179.726,238.07 172.242,244.47C167.64,248.406 162.354,250.186 157.308,250.186C156.454,250.186 155.606,250.136 154.77,250.036Z" style="fill:white;fill-opacity:0.05;"/>
            </g>
            <path d="M258.229,38.251C267.868,41.024 272.285,34.624 288.32,27.852C294.745,25.139 300.478,25.815 305.024,22.865C310.988,18.996 311.563,12.99 305.425,8.37C297.586,2.469 291.54,10.079 283.095,9.642C271.518,9.043 270.724,-2.342 260.815,-1.947C252.55,-1.618 244.948,7.179 245.444,18.502C245.881,28.501 249.905,35.857 258.229,38.251Z" style="fill:white;fill-opacity:0.05;"/>
            <g transform="matrix(0.5,0,0,0.5,0,0)">
                <path d="M365.128,195.23C343.54,182.082 354.698,179.978 367.544,165.23C370.792,161.5 374.15,156.958 377.114,151.224C380.962,143.772 380.242,132.148 389.014,129.434C391.11,128.784 393.002,128.5 394.778,128.5C406.3,128.5 412.962,140.45 439.564,142.106C464.22,143.64 471.84,156.274 463.084,168.628C460.906,171.702 456.388,174.804 453.546,176.522C439.596,184.954 432.49,189.47 419.384,211.42C416.282,216.612 413.472,219.412 410.772,220.552C409.76,220.98 408.764,221.174 407.776,221.174C401.434,221.174 395.334,213.202 386.99,207.332C385.124,206.02 382.992,204.754 380.772,203.536C375.578,200.686 369.894,198.09 365.938,195.72C365.664,195.554 365.394,195.392 365.128,195.23Z" style="fill:white;fill-opacity:0.05;"/>
            </g>
            <path d="M282.497,79.244C276.997,86.109 272.936,85.36 269.413,93.467C266.646,99.835 264.456,116.013 255.706,117.148C240.399,119.134 247.304,97.983 247.031,94.055C246.537,86.962 242.12,80.827 240.154,73.904C236.112,59.674 249.352,51.063 265.932,54.098C287.307,58.009 288.294,72.007 282.497,79.244Z" style="fill:white;fill-opacity:0.05;"/>
            <path d="M261.41,261.345C256.665,257.581 250.334,256.302 244.492,254.889C230.42,251.485 222.095,238.582 226.998,229.986C232.702,219.986 243.69,219.469 255.066,220.113C271.865,221.063 275.416,209.801 285.544,206.219C302.245,200.313 311.736,219.116 303.779,230.353C298.249,238.162 288.875,246.005 288.856,251.79C288.804,267.207 301.221,273.514 301.401,285.781C301.642,302.213 280.524,309.96 271.603,291.029C266.166,279.491 270.478,268.54 261.41,261.345Z" style="fill:white;fill-opacity:0.05;"/>
            <path d="M34.025,182.19C41.833,170.948 49.182,167.283 46.841,157.672C44.972,149.999 36.559,145.586 22.601,154.185C12.271,160.547 1.856,156.438 -6.305,156.533C-22.34,156.718 -28.519,165.262 -23.913,173.375C-17.054,185.456 -2.842,182.818 1.838,195.607C4.527,202.956 7.862,210.557 16.657,209.575C27.31,208.385 26.747,192.67 34.025,182.19Z" style="fill:white;fill-opacity:0.05;"/>
            <path d="M11.077,96.212C19.656,95.945 14.808,79.97 25.134,71.693C33.19,65.236 46.049,70.089 54.677,59.494C60.344,52.534 64.525,34.999 44.883,27.543C40.187,25.761 35.464,27.408 31.163,28.805C16.909,33.435 10.153,18.02 -2.764,16.593C-33.131,13.237 -19.943,97.177 11.077,96.212Z" style="fill:white;fill-opacity:0.05;"/>
            <g transform="matrix(0.5,0,0,0.5,0,0)">
                <path d="M159.726,407.75C157.676,409.074 155.698,409.658 153.834,409.658C145.986,409.658 140.176,399.286 139.644,390.056C138.292,366.546 120.098,375.112 117.618,364.794C116.654,360.79 118.448,356.342 121.7,353.886C126.664,350.138 133.188,348.602 138.054,344.71C143.436,340.408 143.44,332.6 144.31,326.36C145.734,316.15 149.098,307.666 154.77,304.666C156.198,303.91 157.774,303.502 159.5,303.502C165.802,303.502 174.132,308.932 184.77,322.702C185.374,323.484 185.982,324.288 186.6,325.124C192.15,332.618 199.432,334.764 207.488,338.592C227.77,348.232 222.084,365.174 207.13,367.506C204.534,367.91 202.2,368.036 200.076,368.036C198.358,368.036 196.78,367.954 195.31,367.872C193.84,367.79 192.482,367.708 191.204,367.708C188.832,367.708 186.746,367.992 184.77,369.08C181.332,370.978 178.23,375.318 174.536,384.866C169.574,397.7 164.46,404.696 159.726,407.75Z" style="fill:white;fill-opacity:0.05;"/>
            </g>
            <path d="M131.161,188.232C126.486,188.232 123.491,184.747 123.256,179.122C123.021,173.486 126.663,168.707 127.634,161.513C130.059,143.559 126.664,136.211 134.253,129.043C137.635,125.849 141.593,124.38 145.897,124.38C149.933,124.38 154.273,125.673 158.721,128.046C169.13,133.6 172.985,145.07 168.903,152.65C164.009,161.738 153.387,156.42 146.719,166.477C141.854,173.812 145.471,183.26 136.032,187.158C134.264,187.888 132.63,188.232 131.161,188.232Z" style="fill:white;fill-opacity:0.05;"/>
        </g>
    </g>
</svg>
