<?xml version="1.0" encoding="UTF-8" standalone="no"?>
<!DOCTYPE svg PUBLIC "-//W3C//DTD SVG 1.1//EN" "http://www.w3.org/Graphics/SVG/1.1/DTD/svg11.dtd">
<svg width="100%" height="100%" viewBox="0 0 3100 693" version="1.1" xmlns="http://www.w3.org/2000/svg" xmlns:xlink="http://www.w3.org/1999/xlink" xml:space="preserve" xmlns:serif="http://www.serif.com/" style="fill-rule:evenodd;clip-rule:evenodd;stroke-linejoin:round;stroke-miterlimit:2;">
    <g transform="matrix(1,0,0,1,0,-696.883)">
        <g id="Artboard2" transform="matrix(1.03333,0,0,0.230833,0,696.883)">
            <rect x="0" y="0" width="3000" height="3000" style="fill:none;"/>
            <g transform="matrix(4.77793,0,0,21.3886,-4004.44,-3280.21)">
                <g transform="matrix(1.58752,0,0,1.58752,3799.2,-1021.97)">
                    <path d="M-1842.72,794.08L-1857.85,770.617L-1858.85,770.617L-1858.85,808.41L-1858.07,808.41L-1858.07,771.688L-1843,795.096L-1842.44,795.096L-1827.43,771.688L-1827.43,808.41L-1826.64,808.41L-1826.64,770.617L-1827.71,770.617L-1842.72,794.08Z" style="fill:rgb(236,236,236);fill-rule:nonzero;"/>
                    <rect x="-1815.58" y="770.617" width="0.783" height="37.794" style="fill:rgb(236,236,236);fill-rule:nonzero;"/>
                    <path d="M-1776.93,807.057L-1802.89,770.617L-1803.73,770.617L-1803.73,808.41L-1802.95,808.41L-1802.95,771.97L-1776.99,808.41L-1776.15,808.41L-1776.15,770.617L-1776.93,770.617L-1776.93,807.057Z" style="fill:rgb(236,236,236);fill-rule:nonzero;"/>
                    <rect x="-1765.09" y="770.617" width="0.783" height="37.794" style="fill:rgb(236,236,236);fill-rule:nonzero;"/>
                </g>
                <g transform="matrix(1.56647,0,0,1.56647,4138.47,-1005.75)">
                    <path d="M-1843.12,789.399L-1854.12,770.617L-1860.38,770.617L-1860.38,808.41L-1854.8,808.41L-1854.8,780.092L-1845.71,795.547L-1840.58,795.547L-1831.55,780.092L-1831.55,808.41L-1825.97,808.41L-1825.97,770.617L-1832.17,770.617L-1843.12,789.399Z" style="fill:rgb(205,83,34);fill-rule:nonzero;"/>
                    <path d="M-1803,808.918C-1794.03,808.918 -1788.11,802.945 -1788.11,793.974L-1788.11,770.617L-1793.75,770.617L-1793.75,793.805C-1793.75,799.616 -1797.19,803.396 -1803,803.396C-1808.82,803.396 -1812.2,799.616 -1812.2,793.805L-1812.2,770.617L-1817.89,770.617L-1817.89,793.974C-1817.89,802.945 -1812.09,808.918 -1803,808.918Z" style="fill:rgb(205,83,34);fill-rule:nonzero;"/>
                    <path d="M-1765.2,808.918C-1756.23,808.918 -1750.31,802.945 -1750.31,793.974L-1750.31,770.617L-1755.94,770.617L-1755.94,793.805C-1755.94,799.616 -1759.39,803.396 -1765.2,803.396C-1771.01,803.396 -1774.4,799.616 -1774.4,793.805L-1774.4,770.617L-1780.09,770.617L-1780.09,793.974C-1780.09,802.945 -1774.29,808.918 -1765.2,808.918Z" style="fill:rgb(205,83,34);fill-rule:nonzero;"/>
                    <path d="M-1727.4,808.918C-1718.43,808.918 -1712.51,802.945 -1712.51,793.974L-1712.51,770.617L-1718.14,770.617L-1718.14,793.805C-1718.14,799.616 -1721.59,803.396 -1727.4,803.396C-1733.21,803.396 -1736.6,799.616 -1736.6,793.805L-1736.6,770.617L-1742.29,770.617L-1742.29,793.974C-1742.29,802.945 -1736.49,808.918 -1727.4,808.918Z" style="fill:rgb(205,83,34);fill-rule:nonzero;"/>
                </g>
                <g transform="matrix(0.419965,0,0,0.419965,835.307,-32.7081)">
                    <g>
                        <g transform="matrix(1,0,0,1,-13.9345,25.1001)">
                            <g transform="matrix(4.16667,0,0,4.16667,-292.395,-31375.9)">
                                <path d="M263.75,7671.75L266,7671.75C268.346,7671.75 270.25,7673.65 270.25,7676L270.25,7690C270.25,7692.35 268.346,7694.25 266,7694.25L263.75,7694.25L263.75,7671.75ZM266.25,7674.27L266.25,7691.73C267.098,7691.61 267.75,7690.88 267.75,7690L267.75,7676C267.75,7675.12 267.098,7674.39 266.25,7674.27Z" style="fill:rgb(236,236,236);"/>
                            </g>
                            <g transform="matrix(4.16667,0,0,4.16667,-292.395,-31375.9)">
                                <rect x="254" y="7691.75" width="11" height="2.5" style="fill:rgb(236,236,236);"/>
                            </g>
                            <g transform="matrix(4.16667,0,0,4.16667,-292.395,-31459.2)">
                                <rect x="254" y="7691.75" width="11" height="2.5" style="fill:rgb(236,236,236);"/>
                            </g>
                        </g>
                        <g transform="matrix(1,0,0,1,259,284.135)">
                            <path d="M498.212,258.05L498.212,412.198C498.212,443.431 472.854,468.788 441.621,468.788L323.345,468.788C292.111,468.788 266.754,443.431 266.754,412.198L266.754,258.05C266.754,255.174 269.086,252.842 271.962,252.842L493.003,252.842C495.88,252.842 498.212,255.174 498.212,258.05ZM487.795,263.259L277.171,263.259L277.171,412.198C277.171,437.682 297.86,458.372 323.345,458.372L441.621,458.372C467.105,458.372 487.795,437.682 487.795,412.198L487.795,263.259Z" style="fill:rgb(236,236,236);"/>
                        </g>
                        <g>
                            <g transform="matrix(1.3317,0,0,1.3317,-226.009,22.2921)">
                                <circle cx="620.877" cy="447.471" r="8.024" style="fill:rgb(236,236,236);"/>
                            </g>
                            <g transform="matrix(1.32962,0,0,1.32962,-143.363,23.2411)">
                                <circle cx="620.877" cy="447.471" r="8.024" style="fill:rgb(236,236,236);"/>
                            </g>
                        </g>
                        <g transform="matrix(1,0,0,1,-294.191,-26.7995)">
                            <g transform="matrix(4.16667,0,0,4.16667,-62.242,-31364.3)">
                                <path d="M245,7646L247,7646C247,7648.21 245.208,7650 243,7650L228,7650C226.896,7650 226,7650.89 226,7652C226,7653.11 226.896,7654 228,7654L251,7654C253.208,7654 255,7655.79 255,7658C255,7660.21 253.208,7662 251,7662L245,7662C243.896,7662 243,7662.89 243,7664L241,7664C241,7661.79 242.792,7660 245,7660L251,7660C252.104,7660 253,7659.11 253,7658C253,7656.89 252.104,7656 251,7656L228,7656C225.792,7656 224,7654.21 224,7652C224,7649.79 225.792,7648 228,7648L243,7648C244.104,7648 245,7647.11 245,7646Z" style="fill:rgb(236,236,236);"/>
                            </g>
                            <g transform="matrix(4.16667,0,0,4.16667,-62.242,-31364.3)">
                                <path d="M234,7648L234,7650C232.896,7650 232,7650.89 232,7652C232,7653.11 232.896,7654 234,7654L234,7656C231.792,7656 230,7654.21 230,7652C230,7649.79 231.792,7648 234,7648Z" style="fill:rgb(236,236,236);"/>
                            </g>
                            <g transform="matrix(4.16667,0,0,4.16667,-62.242,-31364.3)">
                                <path d="M246,7660L246,7662L239,7662C237.896,7662 237,7662.89 237,7664L235,7664C235,7661.79 236.792,7660 239,7660L246,7660Z" style="fill:rgb(236,236,236);"/>
                            </g>
                        </g>
                        <g>
                            <g transform="matrix(1,0,0,0.401327,169.424,390.852)">
                                <path d="M496.868,803.566C496.868,796.403 499.202,790.588 502.076,790.588C504.951,790.588 507.285,796.403 507.285,803.566L507.285,843.551C507.285,850.713 504.951,856.529 502.076,856.529C499.202,856.529 496.868,850.713 496.868,843.551L496.868,803.566Z" style="fill:rgb(236,236,236);"/>
                            </g>
                            <g transform="matrix(1,0,0,0.401327,109.424,390.852)">
                                <path d="M496.868,803.566C496.868,796.403 499.202,790.588 502.076,790.588C504.951,790.588 507.285,796.403 507.285,803.566L507.285,843.551C507.285,850.713 504.951,856.529 502.076,856.529C499.202,856.529 496.868,850.713 496.868,843.551L496.868,803.566Z" style="fill:rgb(236,236,236);"/>
                            </g>
                            <g transform="matrix(1,0,0,1,1356.82,-3.398)">
                                <path d="M-826.304,590.618C-845.767,588.936 -855.348,575.999 -859.529,562.207C-863.572,548.871 -862.266,534.829 -860.64,530.414C-858.517,524.653 -853.932,525.268 -851.817,526.625C-850.938,527.189 -849.107,528.987 -848.54,533.208C-847.829,538.495 -844.133,541.98 -840.165,544.414C-833.23,548.668 -825.119,549.825 -825.119,549.825C-822.553,550.191 -820.647,552.389 -820.647,554.981L-820.647,585.429C-820.647,586.889 -821.26,588.281 -822.335,589.267C-823.41,590.254 -824.85,590.744 -826.304,590.618ZM-851.261,549.001C-851.032,552.421 -850.53,555.988 -849.561,559.185C-846.933,567.853 -841.541,576.23 -831.064,579.22C-831.064,579.22 -831.064,559.201 -831.064,559.201C-834.859,558.242 -840.489,556.435 -845.611,553.293C-847.615,552.064 -849.533,550.639 -851.261,549.001Z" style="fill:rgb(236,236,236);"/>
                            </g>
                            <g transform="matrix(-1,0,0,1,-73.852,-3.398)">
                                <path d="M-820.647,585.429L-820.647,554.981C-820.647,552.389 -822.553,550.191 -825.119,549.825C-825.119,549.825 -833.23,548.668 -840.165,544.414C-844.133,541.98 -847.829,538.495 -848.54,533.208C-849.053,529.387 -850.546,527.601 -851.336,526.97C-852.627,525.939 -853.992,525.64 -855.331,525.764C-856.688,525.889 -859.315,526.82 -860.64,530.414C-862.266,534.829 -863.572,548.871 -859.529,562.207C-855.348,575.999 -845.767,588.936 -826.304,590.618C-824.85,590.744 -823.41,590.254 -822.335,589.267C-821.26,588.281 -820.647,586.889 -820.647,585.429ZM-851.261,549.001C-849.533,550.639 -847.615,552.064 -845.611,553.293C-840.489,556.435 -834.859,558.242 -831.064,559.201L-831.064,579.22C-841.541,576.23 -846.933,567.853 -849.561,559.185C-850.53,555.988 -851.032,552.421 -851.261,549.001Z" style="fill:rgb(236,236,236);"/>
                            </g>
                        </g>
                    </g>
                    <g transform="matrix(1,0,0,1,259,284.135)">
                        <path d="M493.003,258.05L271.962,258.05L271.962,412.198C271.962,440.556 294.986,463.58 323.345,463.58L441.621,463.58C469.98,463.58 493.003,440.556 493.003,412.198L493.003,258.05Z" style="fill:none;"/>
                        <clipPath id="_clip1">
                            <path d="M493.003,258.05L271.962,258.05L271.962,412.198C271.962,440.556 294.986,463.58 323.345,463.58L441.621,463.58C469.98,463.58 493.003,440.556 493.003,412.198L493.003,258.05Z"/>
                        </clipPath>
                        <g clip-path="url(#_clip1)">
                            <g>
                                <g transform="matrix(1.62545,0,0,1.497,-142.548,-409.205)">
                                    <ellipse cx="390.999" cy="445.73" rx="36.401" ry="57.91" style="fill:rgb(236,236,236);"/>
                                </g>
                                <g transform="matrix(1.62545,0,0,1.497,-363.589,-409.205)">
                                    <ellipse cx="390.999" cy="445.73" rx="36.401" ry="57.91" style="fill:rgb(236,236,236);"/>
                                </g>
                                <g transform="matrix(2.03878,0,9.39419e-18,2.34287,-280.584,-1668.16)">
                                    <path d="M325.227,882.332C355.239,882.332 381.84,889.491 398.338,900.405C409.82,908.001 416.467,917.441 416.467,927.574C416.467,937.706 409.82,947.146 398.338,954.743C381.84,965.657 355.239,972.816 325.227,972.816C295.216,972.816 268.614,965.657 252.117,954.743C240.634,947.146 233.988,937.706 233.988,927.574C233.988,917.441 240.634,908.001 252.117,900.405C268.614,889.491 295.216,882.332 325.227,882.332ZM325.227,886.778C296.503,886.778 270.999,893.498 255.209,903.944C245.167,910.588 239.097,918.712 239.097,927.574C239.097,936.435 245.167,944.56 255.209,951.203C270.999,961.649 296.503,968.369 325.227,968.369C353.952,968.369 379.456,961.649 395.245,951.203C405.288,944.56 411.357,936.435 411.357,927.574C411.357,918.712 405.288,910.588 395.245,903.944C379.456,893.498 353.952,886.778 325.227,886.778Z" style="fill:rgb(236,236,236);"/>
                                </g>
                            </g>
                        </g>
                    </g>
                </g>
            </g>
        </g>
    </g>
</svg>
